<svg width="46" height="46" viewBox="0 0 46 46" fill="none" xmlns="http://www.w3.org/2000/svg">
<rect width="46" height="46" rx="23" fill="#2A59FF"/>
<g clip-path="url(#clip0_317_52)">
<path d="M32.5768 28.8259C32.0246 28.2806 29.9399 26.6653 27.9519 25.4298L27.9312 25.4505C29.9537 22.3028 29.7121 17.954 26.8336 15.0824C23.5893 11.8381 18.3225 11.8381 15.0781 15.0824C11.8407 18.3268 11.8338 23.5936 15.0781 26.8379C17.9014 29.6681 22.2433 29.9994 25.4324 27.9562C26.668 29.9511 28.2763 32.0219 28.8285 32.5742C29.864 33.6096 31.5414 33.6096 32.5768 32.5742C33.6122 31.5387 33.6122 29.8614 32.5768 28.8259ZM24.7214 24.7257C22.6574 26.7896 19.2751 26.8241 17.1835 24.7326C15.1057 22.6548 15.1057 19.2724 17.1835 17.1878C19.2612 15.1031 22.6436 15.0962 24.7283 17.1878C26.875 19.3208 26.7232 22.7308 24.7214 24.7257ZM31.2238 31.2212C30.9408 31.5042 30.5128 31.4905 30.2436 31.2212C29.9675 30.9451 29.9882 30.5033 30.2436 30.2479C30.5059 29.9925 30.9684 29.9925 31.2238 30.2479C31.4862 30.4965 31.493 30.9658 31.2238 31.2212Z" fill="white"/>
<path d="M20.953 17.8599C20.5718 17.8599 20.2627 18.1689 20.2627 18.5501V21.1997C20.2627 21.5809 20.5718 21.89 20.953 21.89C21.3342 21.89 21.6433 21.5809 21.6433 21.1997V18.5501C21.6433 18.1689 21.3342 17.8599 20.953 17.8599Z" fill="white"/>
<path d="M20.4623 22.8756C20.2033 23.1353 20.1891 23.575 20.4623 23.849C20.7285 24.1151 21.1752 24.1162 21.4425 23.849C21.7154 23.5761 21.7019 23.135 21.4425 22.8756C21.1803 22.6201 20.7249 22.6201 20.4623 22.8756Z" fill="white"/>
</g>
<defs>
<clipPath id="clip0_317_52">
<rect width="22" height="22" fill="white" transform="translate(12 12)"/>
</clipPath>
</defs>
</svg>
