<svg width="46" height="46" viewBox="0 0 46 46" fill="none" xmlns="http://www.w3.org/2000/svg">
<rect width="46" height="46" rx="23" fill="#2A59FF"/>
<g clip-path="url(#clip0_317_405)">
<path d="M33.5429 28.4978L25.7714 14.2118C24.5227 12.1097 21.4789 12.1069 20.2286 14.2118L12.4575 28.4978C11.1811 30.6458 12.7264 33.3658 15.2282 33.3658H30.7715C33.2712 33.3658 34.8193 30.648 33.5429 28.4978ZM23 30.7877C22.2894 30.7877 21.7109 30.2092 21.7109 29.4986C21.7109 28.788 22.2894 28.2096 23 28.2096C23.7106 28.2096 24.2891 28.788 24.2891 29.4986C24.2891 30.2092 23.7106 30.7877 23 30.7877ZM24.2891 25.6314C24.2891 26.3421 23.7106 26.9205 23 26.9205C22.2894 26.9205 21.7109 26.3421 21.7109 25.6314V19.1861C21.7109 18.4755 22.2894 17.8971 23 17.8971C23.7106 17.8971 24.2891 18.4755 24.2891 19.1861V25.6314Z" fill="white"/>
</g>
<defs>
<clipPath id="clip0_317_405">
<rect width="22" height="22" fill="white" transform="translate(12 12)"/>
</clipPath>
</defs>
</svg>
