<svg width="46" height="46" viewBox="0 0 46 46" fill="none" xmlns="http://www.w3.org/2000/svg">
<rect width="46" height="46" rx="23" fill="#2A59FF"/>
<path d="M17.2574 16.735C17.2574 16.2784 17.6269 15.9048 18.0876 15.9048H27.9129C28.3737 15.9048 28.7431 16.2784 28.7431 16.735V18.3497H29.7103V15.2655C29.7103 15.0165 29.5069 14.8131 29.2578 14.8131H22.0227C21.5288 14.8131 21.0846 14.5391 20.8605 14.1033L20.4661 13.3312C20.3831 13.1735 20.2212 13.0739 20.0427 13.0739H16.7593C16.5061 13.0739 16.3027 13.2772 16.3027 13.5263V18.3497H17.2574V16.735Z" fill="white"/>
<path d="M18.0869 16.735H27.9122V18.3497H18.0869V16.735Z" fill="white"/>
<path d="M30.4031 19.1799H15.5967C15.3181 19.1799 15.0826 19.4267 15.1276 19.7237L16.2027 26.9961C16.2359 27.2327 16.4352 27.4071 16.6718 27.4071H18.0665V24.1984C18.0665 23.5301 18.5936 22.9822 19.2702 22.9573C20.5487 22.895 21.5242 22.6045 22.234 22.0648C22.4665 21.8946 22.728 21.8075 23.0019 21.8075C23.2718 21.8075 23.5333 21.8946 23.7574 22.0565C24.4755 22.6045 25.451 22.895 26.7419 22.9614C27.402 22.9822 27.9291 23.5301 27.9291 24.1984V27.4071H29.328C29.5605 27.4071 29.7638 27.2327 29.7971 27.0003L30.8721 19.7237C30.9166 19.4302 30.6857 19.1799 30.4031 19.1799Z" fill="white"/>
<path d="M26.7003 23.7888C25.3595 23.7224 24.1806 23.4194 23.2633 22.7262C23.1055 22.61 22.8938 22.61 22.7361 22.7262C21.8187 23.4194 20.6399 23.7224 19.2991 23.7888C19.075 23.7971 18.8965 23.9798 18.8965 24.1998V27.5039C18.8965 28.9817 19.4818 30.4221 20.5735 31.4224C21.5074 32.2817 22.4704 32.7383 22.8399 32.8919C22.9437 32.9375 23.0557 32.9375 23.1595 32.8919C23.5165 32.7424 24.4172 32.319 25.3221 31.5179C25.3304 31.5137 25.3346 31.5013 25.3429 31.4971C26.4802 30.4968 27.0988 29.019 27.0988 27.4998V24.1998C27.0988 23.9798 26.9244 23.7971 26.7003 23.7888ZM23.652 27.7179C23.5667 27.789 23.524 27.8957 23.5382 28.0059C23.5845 28.3116 23.6733 28.916 23.7302 29.3035C23.7586 29.4954 23.6093 29.6661 23.4138 29.6661H22.5855C22.39 29.6661 22.2407 29.4954 22.2691 29.2999L22.4575 28.0059C22.4753 27.8992 22.4362 27.789 22.3509 27.7215C22.1198 27.533 21.974 27.2451 21.974 26.9252C21.974 26.2497 22.6317 25.72 23.3321 25.9511C23.6342 26.0506 23.876 26.2959 23.972 26.5945C24.1141 27.0389 23.9577 27.4655 23.652 27.7179Z" fill="white"/>
</svg>
