<svg width="46" height="46" viewBox="0 0 46 46" fill="none" xmlns="http://www.w3.org/2000/svg">
<rect width="46" height="46" rx="23" fill="#2A59FF"/>
<g clip-path="url(#clip0_317_392)">
<path fill-rule="evenodd" clip-rule="evenodd" d="M18.741 25.7835L23.6777 22.9402C24.1829 22.6491 24.3577 21.9974 24.0666 21.4924C23.7755 20.9875 23.124 20.8122 22.6189 21.1034L15.5009 25.214C15.3054 24.2629 14.961 23.9042 14.3517 23.8701C13.6652 23.8317 13.0792 24.3353 13.0078 25.0193C12.6971 27.9922 11.9885 28.5382 13.3114 31.1658C14.4465 33.4207 17.1787 34.0553 19.2053 32.8927L21.953 31.2772C22.4582 30.9861 22.633 30.3345 22.3418 29.8295C22.0508 29.3246 21.3992 29.1493 20.8939 29.4415C21.3988 29.1514 21.5736 28.4997 21.2825 27.9946C20.9914 27.4897 20.3398 27.3145 19.8344 27.6065C20.3393 27.3162 20.514 26.6645 20.2229 26.1594C19.9319 25.6546 19.2444 25.4895 18.741 25.7835ZM27.8289 13.8272C27.8289 13.9933 27.6943 14.128 27.5282 14.128C27.362 14.128 27.2274 13.9933 27.2274 13.8272V12.8379C27.2274 12.6718 27.362 12.5371 27.5282 12.5371C27.6943 12.5371 27.8289 12.6718 27.8289 12.8379V13.8272ZM26.161 23.0131H27.2274V19.4586L26.0594 18.7843C25.916 18.7019 25.8666 18.5189 25.949 18.3754C26.0314 18.2321 26.2144 18.1826 26.3579 18.265L27.5282 18.9407L28.6985 18.265C28.8418 18.1826 29.0249 18.2321 29.1074 18.3754C29.1898 18.5188 29.1403 18.7019 28.9969 18.7843L27.829 19.4586V23.0131H28.8954C29.0096 21.484 29.428 20.8363 29.7926 20.2724C30.0662 19.8492 30.3045 19.4805 30.3045 18.7138C30.3045 17.1804 29.0616 15.9375 27.5282 15.9375C25.9948 15.9375 24.7519 17.1804 24.7519 18.7138C24.7519 19.4805 24.9903 19.8492 25.2638 20.2724C25.6283 20.8364 26.0468 21.484 26.161 23.0131ZM29.4933 23.088C29.6392 23.1777 29.7371 23.3389 29.7371 23.5218V24.6197C29.7371 24.8995 29.5082 25.1284 29.2284 25.1284H28.7055V25.6385C28.7055 25.9024 28.4895 26.1183 28.2256 26.1183H26.8307C26.5667 26.1183 26.3508 25.9024 26.3508 25.6385V25.1284H25.8279C25.5481 25.1284 25.3192 24.8995 25.3192 24.6197V23.5218C25.3192 23.3389 25.4171 23.1777 25.563 23.088C25.4616 21.6809 25.0871 21.1013 24.7609 20.5968C24.4346 20.092 24.1503 19.6522 24.1503 18.7139C24.1503 16.8484 25.6627 15.336 27.5281 15.336C29.3936 15.336 30.906 16.8484 30.906 18.7139C30.906 19.6522 30.6217 20.092 30.2954 20.5968C29.9692 21.1013 29.5947 21.6808 29.4933 23.088ZM32.4555 16.8455C32.3121 16.9279 32.129 16.8785 32.0466 16.7351C31.9642 16.5917 32.0137 16.4086 32.1571 16.3262L33.0138 15.8316C33.1572 15.7492 33.3403 15.7986 33.4227 15.942C33.5051 16.0854 33.4557 16.2685 33.3123 16.3509L32.4555 16.8455ZM30.5465 14.7156C30.4641 14.859 30.281 14.9084 30.1376 14.826C29.9942 14.7436 29.9448 14.5606 30.0272 14.4171L30.5218 13.5604C30.6043 13.417 30.7873 13.3675 30.9307 13.4499C31.0742 13.5324 31.1236 13.7154 31.0412 13.8588L30.5465 14.7156ZM22.8992 16.3262C23.0426 16.4086 23.0921 16.5917 23.0097 16.7351C22.9272 16.8785 22.7442 16.928 22.6008 16.8455L21.744 16.3509C21.6006 16.2685 21.5512 16.0854 21.6336 15.942C21.716 15.7986 21.899 15.7492 22.0425 15.8316L22.8992 16.3262ZM25.0291 14.416C25.1122 14.5594 25.0633 14.743 24.9199 14.8261C24.7765 14.9091 24.5929 14.8602 24.5098 14.7168L24.0152 13.86C23.9321 13.7166 23.9811 13.533 24.1244 13.45C24.2678 13.3669 24.4514 13.4159 24.5345 13.5592L25.0291 14.416Z" fill="white"/>
</g>
<defs>
<clipPath id="clip0_317_392">
<rect width="22" height="22" fill="white" transform="translate(12 12)"/>
</clipPath>
</defs>
</svg>
