<?xml version="1.0" standalone="no"?>
<!DOCTYPE svg PUBLIC "-//W3C//DTD SVG 20010904//EN"
 "http://www.w3.org/TR/2001/REC-SVG-20010904/DTD/svg10.dtd">
<svg version="1.0" xmlns="http://www.w3.org/2000/svg"
 width="313.000000pt" height="235.000000pt" viewBox="0 0 313.000000 235.000000"
 preserveAspectRatio="xMidYMid meet">

<g transform="translate(0.000000,235.000000) scale(0.100000,-0.100000)"
fill="#000000" stroke="none">
<path d="M1539 1621 c-53 -17 -79 -38 -262 -220 -191 -188 -221 -228 -233
-298 -19 -118 84 -232 209 -233 82 0 111 20 304 212 221 220 209 216 319 107
66 -65 74 -78 74 -111 0 -27 -6 -41 -22 -52 -41 -29 -68 -20 -130 41 -56 55
-58 56 -73 38 -44 -59 -25 -152 41 -198 104 -73 262 -27 310 89 18 43 18 126
0 167 -20 46 -175 203 -219 222 -47 19 -127 19 -175 0 -23 -10 -105 -84 -217
-195 -155 -154 -185 -180 -211 -180 -37 0 -74 36 -74 70 0 18 63 88 251 276
l252 252 -39 11 c-44 12 -68 13 -105 2z"/>
<path d="M1497 862 l-78 -79 23 -15 c77 -50 200 -50 266 1 l22 16 -78 78 -77
77 -78 -78z"/>
</g>
</svg>
