<svg xmlns="http://www.w3.org/2000/svg" xmlns:xlink="http://www.w3.org/1999/xlink" width="500" zoomAndPan="magnify" viewBox="0 0 375 374.999991" height="500" preserveAspectRatio="xMidYMid meet" version="1.0"><defs><clipPath id="6c1722de31"><path d="M 187.5 0 C 83.945312 0 0 83.945312 0 187.5 C 0 291.054688 83.945312 375 187.5 375 C 291.054688 375 375 291.054688 375 187.5 C 375 83.945312 291.054688 0 187.5 0 Z M 187.5 0 " clip-rule="nonzero"/></clipPath><clipPath id="e49ed7ea35"><path d="M 178.074219 269.480469 L 196.925781 269.480469 L 196.925781 288.332031 L 178.074219 288.332031 Z M 178.074219 269.480469 " clip-rule="nonzero"/></clipPath><clipPath id="39fca94cbe"><path d="M 187.5 269.480469 C 182.292969 269.480469 178.074219 273.699219 178.074219 278.90625 C 178.074219 284.113281 182.292969 288.332031 187.5 288.332031 C 192.707031 288.332031 196.925781 284.113281 196.925781 278.90625 C 196.925781 273.699219 192.707031 269.480469 187.5 269.480469 Z M 187.5 269.480469 " clip-rule="nonzero"/></clipPath></defs><g clip-path="url(#6c1722de31)"><rect x="-37.5" width="450" fill="#ffffff" y="-37.499999" height="449.999989" fill-opacity="1"/></g><path fill="#000000" d="M 177.3125 56.289062 C 162.539062 61.027344 155.289062 66.875 104.277344 117.585938 C 51.035156 169.964844 42.671875 181.109375 39.328125 200.613281 C 34.03125 233.488281 62.742188 265.253906 97.589844 265.53125 C 120.445312 265.53125 128.53125 259.957031 182.332031 206.464844 C 243.9375 145.167969 240.589844 146.28125 271.253906 176.652344 C 289.652344 194.761719 291.882812 198.382812 291.882812 207.578125 C 291.882812 215.101562 290.210938 219 285.75 222.066406 C 274.320312 230.144531 266.792969 227.640625 249.511719 210.644531 C 233.902344 195.320312 233.34375 195.039062 229.160156 200.054688 C 216.894531 216.492188 222.191406 242.40625 240.589844 255.222656 C 269.582031 275.5625 313.625 262.746094 327.003906 230.425781 C 332.023438 218.445312 332.023438 195.320312 327.003906 183.894531 C 321.429688 171.078125 278.222656 127.335938 265.957031 122.042969 C 252.855469 116.75 230.554688 116.75 217.175781 122.042969 C 210.765625 124.828125 187.90625 145.445312 156.683594 176.375 C 113.476562 219.28125 105.113281 226.523438 97.867188 226.523438 C 87.554688 226.523438 77.238281 216.492188 77.238281 207.019531 C 77.238281 202.007812 94.800781 182.503906 147.207031 130.121094 L 217.453125 59.910156 L 206.582031 56.847656 C 194.316406 53.503906 187.625 53.222656 177.3125 56.289062 Z M 177.3125 56.289062 " fill-opacity="1" fill-rule="nonzero"/><path fill="#000000" d="M 165.605469 267.757812 L 143.863281 289.769531 L 150.273438 293.949219 C 171.738281 307.878906 206.023438 307.878906 224.421875 293.671875 L 230.554688 289.214844 L 208.8125 267.480469 L 187.347656 246.027344 Z M 165.605469 267.757812 " fill-opacity="1" fill-rule="nonzero"/><g clip-path="url(#e49ed7ea35)"><g clip-path="url(#39fca94cbe)"><path fill="#ffffff" d="M 178.074219 269.480469 L 196.925781 269.480469 L 196.925781 288.332031 L 178.074219 288.332031 Z M 178.074219 269.480469 " fill-opacity="1" fill-rule="nonzero"/></g></g></svg>