<svg width="20" height="21" viewBox="0 0 20 21" fill="none" xmlns="http://www.w3.org/2000/svg">
<rect y="0.745117" width="19.9943" height="20" rx="9.99715" fill="#2A59FF"/>
<path d="M12.2655 12.1554H11.8148L11.6551 12.0013C12.0116 11.5872 12.2721 11.0993 12.4181 10.5727C12.564 10.046 12.5918 9.49365 12.4994 8.95504C12.2312 7.36914 10.9077 6.1027 9.31043 5.90874C8.74888 5.8377 8.17851 5.89606 7.64297 6.07936C7.10744 6.26266 6.62093 6.56604 6.22069 6.96629C5.82044 7.36654 5.51706 7.85304 5.33375 8.38858C5.15045 8.92411 5.09209 9.49448 5.16313 10.056C5.35709 11.6533 6.62353 12.9768 8.20943 13.245C8.74804 13.3374 9.30043 13.3097 9.82706 13.1637C10.3537 13.0177 10.8416 12.7572 11.2557 12.4007L11.4098 12.5604V13.0111L13.8342 15.4356C14.0681 15.6694 14.4504 15.6694 14.6842 15.4356C14.9181 15.2017 14.9181 14.8194 14.6842 14.5856L12.2655 12.1554ZM8.84265 12.1554C7.42219 12.1554 6.27555 11.0087 6.27555 9.58826C6.27555 8.16779 7.42219 7.02115 8.84265 7.02115C10.2631 7.02115 11.4098 8.16779 11.4098 9.58826C11.4098 11.0087 10.2631 12.1554 8.84265 12.1554Z" fill="white"/>
</svg>
